<?xml version="1.0" encoding="UTF-8" standalone="no"?>
<svg
   xmlns:dc="http://purl.org/dc/elements/1.1/"
   xmlns:cc="http://creativecommons.org/ns#"
   xmlns:rdf="http://www.w3.org/1999/02/22-rdf-syntax-ns#"
   xmlns:svg="http://www.w3.org/2000/svg"
   xmlns="http://www.w3.org/2000/svg"
   xmlns:sodipodi="http://sodipodi.sourceforge.net/DTD/sodipodi-0.dtd"
   xmlns:inkscape="http://www.inkscape.org/namespaces/inkscape"
   height="300"
   viewBox="0 0 299.99999 300"
   width="300"
   version="1.1"
   id="svg59"
   sodipodi:docname="dexed.svg"
   inkscape:version="0.92.3 (2405546, 2018-03-11)"
   inkscape:export-filename="/home/basile/dev/projects/dexed/logo/dexed64.png"
   inkscape:export-xdpi="20.48"
   inkscape:export-ydpi="20.48">
  <metadata
     id="metadata65">
    <rdf:RDF>
      <cc:Work
         rdf:about="">
        <dc:format>image/svg+xml</dc:format>
        <dc:type
           rdf:resource="http://purl.org/dc/dcmitype/StillImage" />
        <dc:title></dc:title>
      </cc:Work>
    </rdf:RDF>
  </metadata>
  <defs
     id="defs63">
    <filter
       style="color-interpolation-filters:sRGB"
       inkscape:label="Greyscale"
       id="filter8612">
      <feColorMatrix
         values="0.21 0.72 0.072 -0.14 0 0.21 0.72 0.072 -0.14 0 0.21 0.72 0.072 -0.14 0 0 0 0 1 0 "
         id="feColorMatrix8610" />
    </filter>
  </defs>
  <sodipodi:namedview
     pagecolor="#ffffff"
     bordercolor="#666666"
     borderopacity="1"
     objecttolerance="10"
     gridtolerance="10"
     guidetolerance="10"
     inkscape:pageopacity="0"
     inkscape:pageshadow="2"
     inkscape:window-width="1920"
     inkscape:window-height="1015"
     id="namedview61"
     showgrid="false"
     inkscape:zoom="1"
     inkscape:cx="88.268671"
     inkscape:cy="186.09363"
     inkscape:window-x="0"
     inkscape:window-y="0"
     inkscape:window-maximized="1"
     inkscape:current-layer="g57"
     fit-margin-top="0"
     fit-margin-left="0"
     fit-margin-right="0"
     fit-margin-bottom="0"
     inkscape:pagecheckerboard="false" />
  <clipPath
     id="a">
    <path
       d="M 0,308.33 H 847.559 V 0 H 0 Z"
       id="path2"
       inkscape:connector-curvature="0" />
  </clipPath>
  <g
     clip-path="url(#a)"
     transform="matrix(1.3333333,0,0,-1.3333333,-84.948344,405.8523)"
     id="g57">
    <g
       id="g8598"
       transform="rotate(-28.771749,265.06737,249.59924)">
      <path
         transform="translate(221.9476,184.8732)"
         id="path5"
         d="M 0,0 10.499,5.783 C 21.616,11.906 33.343,8.36 39.368,-2.58 l 0.098,-0.177 c 6.025,-10.939 2.656,-22.569 -8.46,-28.692 L 20.507,-37.232 Z M 75.191,17.15 75.02,17.46 C 58.252,47.904 21.91,58.301 -12.089,39.575 L -54.278,16.338 5.304,-91.839 47.493,-68.602 c 33.999,18.726 44.466,55.308 27.698,85.752"
         inkscape:connector-curvature="0"
         style="fill:#a93a58" />
      <path
         transform="translate(252.9534,153.4238)"
         id="path7"
         d="m 0,0 -10.499,-5.783 -20.507,37.232 10.499,5.783 C -9.39,43.355 2.337,39.81 8.363,28.869 L 8.46,28.693 C 14.485,17.753 11.117,6.123 0,0 M 35.443,0.285 34.99,0.036 c 0.162,0.09 0.28,0.222 0.407,0.345 C 34.85,1.516 34.291,2.674 33.728,3.841 33.486,3.807 33.244,3.742 33.017,3.617 l 0.647,0.357 c -4.218,8.741 -8.562,17.727 -8.69,17.92 -0.252,0.378 -27.997,38.337 -28.375,38.337 -0.265,0 -17.309,9.47 -28.69,15.809 -3.677,-1.351 -7.354,-3.005 -11.004,-5.015 L -58.173,62.72 c 0.327,-0.926 -0.015,-1.973 -0.903,-2.462 L -77.863,49.911 c -0.989,-0.545 -1.349,-1.788 -0.804,-2.777 0.545,-0.989 1.788,-1.349 2.777,-0.805 l 13.744,7.571 c 0.989,0.544 2.232,0.184 2.777,-0.805 0.545,-0.989 0.185,-2.232 -0.804,-2.777 l -2.315,-1.275 c -0.989,-0.545 -1.349,-1.788 -0.804,-2.777 0.544,-0.989 1.788,-1.349 2.777,-0.804 l 1.709,0.941 c 0.989,0.545 2.232,0.184 2.777,-0.805 0.544,-0.988 0.184,-2.232 -0.804,-2.776 l -16.014,-8.82 c -0.989,-0.545 -1.349,-1.789 -0.804,-2.777 0.544,-0.989 1.788,-1.35 2.777,-0.805 l 14.49,7.981 c -0.08,-0.044 -0.154,-0.094 -0.225,-0.147 0.941,0.368 2.031,-0.008 2.532,-0.917 0.5,-0.908 0.235,-2.031 -0.578,-2.63 0.082,0.033 0.164,0.069 0.244,0.113 l -6.084,-3.351 c -0.989,-0.545 -1.349,-1.788 -0.804,-2.777 0.544,-0.989 1.788,-1.349 2.777,-0.805 l 3.733,2.056 c 0.989,0.545 2.232,0.185 2.776,-0.804 0.545,-0.989 0.185,-2.233 -0.804,-2.777 l -6.337,-3.491 c -0.989,-0.544 -1.349,-1.788 -0.804,-2.777 0.545,-0.989 1.788,-1.349 2.777,-0.804 l 13.44,7.402 c 0.989,0.545 2.232,0.185 2.777,-0.804 0.544,-0.989 0.184,-2.232 -0.804,-2.777 l -22.959,-12.645 1.972,-3.582 10.682,5.883 c 0.989,0.545 2.232,0.185 2.777,-0.804 0.544,-0.989 0.184,-2.233 -0.804,-2.777 l -6.991,-3.85 C -58.08,4.791 -58.44,3.548 -57.895,2.559 -57.35,1.57 -56.107,1.21 -55.118,1.754 l 12.178,6.708 c 0.989,0.544 2.232,0.184 2.777,-0.805 0.544,-0.989 0.184,-2.232 -0.805,-2.777 l -15.465,-8.518 c -0.143,-0.079 -0.243,-0.199 -0.359,-0.304 l 1.883,-3.419 c 0.151,0.042 0.305,0.062 0.448,0.141 l 22.834,12.577 c 0.989,0.544 2.232,0.184 2.777,-0.805 0.544,-0.989 0.184,-2.232 -0.805,-2.777 L -47.88,-8.263 c -0.989,-0.545 -1.349,-1.788 -0.804,-2.777 0.545,-0.989 1.788,-1.349 2.777,-0.805 L -22.786,0.89 c 0.989,0.545 2.232,0.184 2.777,-0.804 0.544,-0.989 0.184,-2.232 -0.804,-2.777 l -9.202,-5.069 c -0.989,-0.544 -1.349,-1.788 -0.805,-2.777 0.545,-0.989 1.788,-1.349 2.777,-0.804 l 4.955,2.729 c 0.989,0.544 2.232,0.184 2.777,-0.805 0.545,-0.989 0.185,-2.232 -0.804,-2.777 L -40.63,-22.942 c -0.989,-0.545 -1.349,-1.788 -0.804,-2.777 0.545,-0.989 1.788,-1.349 2.777,-0.804 l 14.369,7.914 c 0.99,0.545 2.232,0.184 2.777,-0.805 0.545,-0.988 0.185,-2.232 -0.804,-2.777 l -17.78,-9.793 c -0.362,-0.199 -0.605,-0.507 -0.785,-0.847 l 1.622,-2.945 c 0.383,-0.029 0.774,0.012 1.135,0.211 l 6.859,3.778 c 0.989,0.544 2.232,0.184 2.777,-0.805 0.545,-0.989 0.185,-2.232 -0.804,-2.777 l -5.707,-3.143 c -0.989,-0.545 -1.349,-1.788 -0.805,-2.777 0.545,-0.989 1.788,-1.35 2.777,-0.805 l 18.223,10.037 c 0.989,0.545 2.233,0.184 2.777,-0.804 0.545,-0.989 0.185,-2.233 -0.804,-2.777 l -7.14,-3.933 c -0.989,-0.545 -1.349,-1.788 -0.805,-2.777 0.545,-0.989 1.789,-1.349 2.777,-0.805 l 7.812,4.303 c 0.989,0.544 2.232,0.184 2.776,-0.805 0.545,-0.989 0.185,-2.232 -0.804,-2.777 l -13.621,-7.502 c -0.989,-0.545 -1.349,-1.788 -0.804,-2.777 0.544,-0.989 1.788,-1.349 2.777,-0.805 l 18.763,10.335 c 0.989,0.544 2.232,0.184 2.777,-0.805 0.212,-0.385 0.25,-0.805 0.204,-1.211 l 14.605,8.044 c 11.067,6.096 19.623,14.091 25.576,23.143 -0.271,0.865 -0.443,1.476 -0.443,1.476 0,0 -2.843,5.904 -6.177,12.819"
         inkscape:connector-curvature="0"
         style="fill:#d63452" />
      <path
         transform="translate(238.2504,233.4539)"
         id="path9"
         d="m 0,0 -12.537,-6.905 z m 58.888,-31.431 -0.171,0.31 c -1.065,1.935 -2.211,3.786 -3.429,5.557 l -5.345,-2.944 c 0.989,0.545 1.349,1.788 0.804,2.777 -0.544,0.989 -1.788,1.349 -2.776,0.804 l 4.857,2.676 c -0.867,1.099 -1.763,2.162 -2.69,3.186 l -2.114,-1.164 c 0.891,0.491 1.232,1.542 0.9,2.47 -0.396,0.413 -0.795,0.824 -1.201,1.224 -0.534,0.192 -1.136,0.182 -1.672,-0.113 l 1.147,0.632 C 31.046,-0.489 7.56,4.67 -16.068,-3.51 c -0.148,-0.495 -0.48,-0.936 -0.969,-1.206 l -13.918,-7.665 c -0.988,-0.545 -1.349,-1.788 -0.804,-2.777 0.545,-0.989 1.788,-1.349 2.777,-0.805 l 12.539,6.906 c 0.989,0.545 2.232,0.185 2.777,-0.804 0.544,-0.989 0.184,-2.232 -0.805,-2.777 l -1.001,-0.552 c -0.989,-0.544 -1.349,-1.788 -0.804,-2.777 0.544,-0.989 1.788,-1.349 2.777,-0.804 l 7.764,4.276 c 0.989,0.545 2.232,0.185 2.777,-0.804 0.544,-0.989 0.184,-2.233 -0.805,-2.777 l -12.322,-6.788 c -0.99,-0.544 -1.349,-1.788 -0.805,-2.777 0.545,-0.988 1.788,-1.349 2.777,-0.804 l 4.957,2.73 c -0.079,-0.044 -0.154,-0.094 -0.225,-0.146 0.941,0.367 2.031,-0.009 2.532,-0.917 0.5,-0.909 0.235,-2.032 -0.579,-2.63 0.083,0.032 0.165,0.068 0.246,0.112 l -7.781,-4.285 c -0.989,-0.545 -1.349,-1.788 -0.804,-2.777 0.545,-0.989 1.788,-1.349 2.777,-0.805 l 16.541,9.111 c 0.989,0.545 2.232,0.184 2.777,-0.804 0.545,-0.989 0.185,-2.233 -0.804,-2.777 l -6.337,-3.491 c -0.989,-0.544 -1.349,-1.788 -0.804,-2.777 0.544,-0.989 1.788,-1.349 2.776,-0.804 l 2.181,1.201 c 0.989,0.545 2.233,0.184 2.777,-0.805 0.545,-0.988 0.185,-2.232 -0.804,-2.776 l -11.296,-6.222 c -0.989,-0.545 -1.349,-1.788 -0.804,-2.777 0.544,-0.989 1.787,-1.35 2.777,-0.805 l 15.452,8.511 c 0.989,0.545 2.232,0.184 2.777,-0.805 0.544,-0.988 0.184,-2.232 -0.805,-2.777 l -17.478,-9.626 c -0.989,-0.545 -1.349,-1.788 -0.804,-2.777 0.545,-0.989 1.788,-1.349 2.777,-0.805 l 21.385,11.779 c 0.989,0.544 2.232,0.184 2.777,-0.805 0.544,-0.989 0.184,-2.232 -0.804,-2.777 L 9.569,-55.414 c -0.989,-0.544 -1.349,-1.788 -0.805,-2.777 0.545,-0.989 1.788,-1.349 2.777,-0.804 l 11.698,6.443 c 0.989,0.544 2.232,0.184 2.777,-0.805 0.545,-0.989 0.185,-2.232 -0.804,-2.777 l -15.068,-8.299 c -0.989,-0.545 -1.349,-1.788 -0.804,-2.777 0.544,-0.989 1.788,-1.349 2.777,-0.804 l 18.542,10.212 c 0.989,0.545 2.232,0.185 2.777,-0.804 0.544,-0.989 0.184,-2.232 -0.805,-2.777 L 17.459,-69.74 c -0.989,-0.545 -1.349,-1.788 -0.804,-2.777 0.545,-0.989 1.788,-1.349 2.777,-0.804 l 11.697,6.443 c 0.99,0.544 2.233,0.184 2.778,-0.805 0.544,-0.989 0.184,-2.232 -0.805,-2.777 l -9.592,-5.283 c -0.989,-0.545 -1.349,-1.788 -0.805,-2.777 0.545,-0.989 1.788,-1.35 2.777,-0.805 l 14.614,8.049 c 0.989,0.545 2.233,0.185 2.777,-0.804 0.545,-0.989 0.185,-2.232 -0.804,-2.777 l -9.764,-5.378 c -0.989,-0.545 -1.349,-1.788 -0.805,-2.777 0.545,-0.989 1.788,-1.349 2.777,-0.805 l 11.041,6.081 c 0.988,0.545 2.232,0.184 2.777,-0.804 0.544,-0.989 0.184,-2.233 -0.805,-2.777 L 25.602,-93.263 c -0.989,-0.545 -1.349,-1.788 -0.805,-2.777 0.545,-0.989 1.788,-1.349 2.777,-0.805 l 15.964,8.793 c 0.989,0.545 2.232,0.184 2.777,-0.805 0.545,-0.988 0.185,-2.232 -0.804,-2.777 l -12.7,-6.994 c -0.989,-0.545 -1.349,-1.788 -0.804,-2.777 0.544,-0.989 1.788,-1.35 2.777,-0.805 l 4.255,2.344 c 0.989,0.545 2.232,0.184 2.777,-0.805 0.545,-0.988 0.185,-2.232 -0.804,-2.777 l -13.514,-7.442 c -0.989,-0.545 -1.348,-1.789 -0.804,-2.777 0.545,-0.989 1.788,-1.35 2.777,-0.805 l 19.492,10.736 c 19.339,19.913 23.283,48.052 9.925,72.305"
         inkscape:connector-curvature="0"
         style="fill:#e95e67" />
      <g
         id="g21"
         style="fill:#f7b360">
        <path
           id="path11"
           transform="translate(254.4874,232.9722)"
           d="M 0,0 C -2.658,0.442 -5.367,0.699 -8.115,0.784 -8.29,0.396 -8.556,0.044 -8.959,-0.177 l -4.315,-2.377 c -0.989,-0.545 -1.349,-1.788 -0.804,-2.777 0.544,-0.989 1.788,-1.349 2.777,-0.805 l 10.927,6.019 C -0.255,-0.052 -0.125,-0.04 0,0"
           inkscape:connector-curvature="0" />
        <path
           id="path13"
           transform="translate(303.3135,171.2615)"
           d="m 0,0 -16.298,-8.977 c -0.989,-0.544 -1.349,-1.788 -0.804,-2.777 0.544,-0.989 1.788,-1.349 2.777,-0.804 L 0.45,-4.42 c 0.316,0.173 0.654,0.225 0.989,0.224 C 2.473,7.49 0.004,19.542 -6.175,30.762 l -0.171,0.309 c -9.005,16.35 -23.658,26.907 -40.56,30.287 0.188,-0.157 0.357,-0.342 0.482,-0.569 0.545,-0.989 0.185,-2.232 -0.804,-2.777 l -5.192,-2.86 c -0.988,-0.544 -1.348,-1.788 -0.804,-2.777 0.545,-0.989 1.788,-1.349 2.777,-0.804 l 9.487,5.225 c -0.08,-0.044 -0.155,-0.094 -0.226,-0.147 0.941,0.367 2.031,-0.008 2.531,-0.917 0.501,-0.909 0.236,-2.031 -0.578,-2.63 0.083,0.032 0.165,0.068 0.245,0.112 l -19.045,-10.49 c -0.989,-0.544 -1.349,-1.788 -0.804,-2.777 0.544,-0.989 1.788,-1.349 2.776,-0.804 l 17.543,9.662 c 0.989,0.545 2.232,0.184 2.777,-0.805 0.545,-0.988 0.184,-2.232 -0.804,-2.777 l -10.844,-5.972 c -0.989,-0.545 -1.349,-1.788 -0.805,-2.777 0.545,-0.989 1.788,-1.349 2.777,-0.805 l 6.688,3.684 c 0.989,0.544 2.232,0.184 2.777,-0.805 0.545,-0.989 0.185,-2.232 -0.804,-2.777 l -3.828,-2.108 c -0.989,-0.544 -1.349,-1.788 -0.804,-2.777 0.545,-0.989 1.788,-1.349 2.777,-0.804 l 7.984,4.397 c 0.989,0.544 2.232,0.184 2.776,-0.805 0.545,-0.989 0.185,-2.232 -0.804,-2.777 l -10.844,-5.972 c -0.989,-0.545 -1.349,-1.788 -0.804,-2.777 0.544,-0.989 1.788,-1.35 2.777,-0.805 l 14.751,8.125 c 0.988,0.544 2.232,0.184 2.776,-0.805 0.545,-0.989 0.185,-2.232 -0.804,-2.777 l -7.938,-4.372 c -0.989,-0.545 -1.349,-1.788 -0.805,-2.777 0.545,-0.989 1.789,-1.349 2.777,-0.805 l 7.939,4.373 c 0.989,0.544 2.232,0.184 2.777,-0.805 0.544,-0.989 0.184,-2.232 -0.805,-2.777 l -2.403,-1.324 c -0.989,-0.544 -1.349,-1.788 -0.804,-2.777 0.544,-0.989 1.788,-1.349 2.777,-0.804 l 5.878,3.237 c 0.989,0.545 2.232,0.184 2.776,-0.804 0.545,-0.989 0.185,-2.233 -0.804,-2.777 L -20.851,7.188 C -21.84,6.643 -22.2,5.4 -21.655,4.411 c 0.545,-0.989 1.788,-1.349 2.777,-0.805 l 7.938,4.372 c 0.989,0.545 2.233,0.185 2.777,-0.804 0.545,-0.989 0.185,-2.232 -0.804,-2.777 L -12.084,2.68 c -0.989,-0.545 -1.349,-1.788 -0.805,-2.777 0.545,-0.989 1.788,-1.349 2.777,-0.804 l 8.139,4.482 C -0.984,4.126 0.259,3.766 0.804,2.777 1.349,1.788 0.989,0.545 0,0"
           inkscape:connector-curvature="0" />
        <path
           id="path15"
           transform="translate(236.131,232.2866)"
           d="M 0,0 2.219,1.222 C 0.627,1.07 -0.975,0.846 -2.582,0.574 -1.978,-0.215 -0.897,-0.494 0,0"
           inkscape:connector-curvature="0" />
        <path
           id="path17"
           transform="translate(298.2678,159.1463)"
           d="m 0,0 c -0.989,-0.545 -1.349,-1.788 -0.804,-2.777 0.544,-0.989 1.788,-1.349 2.777,-0.805 l 2.647,1.458 c 0.029,0.017 0.063,0.015 0.093,0.03 0.472,1.761 0.856,3.539 1.161,5.33 z"
           inkscape:connector-curvature="0" />
        <path
           id="path19"
           transform="translate(297.7487,149.5244)"
           d="m 0,0 c -0.989,-0.545 -1.349,-1.788 -0.804,-2.777 0.359,-0.653 1.027,-0.997 1.721,-1.022 0.933,1.861 1.766,3.755 2.494,5.678 z"
           inkscape:connector-curvature="0" />
      </g>
      <path
         transform="translate(255.7977,119.292)"
         id="path23"
         d="m 0,0 c -0.55,0.999 -1.806,1.363 -2.805,0.813 l -2.912,-1.604 c -0.999,-0.55 -1.363,-1.806 -0.812,-2.805 0.55,-0.999 1.806,-1.363 2.805,-0.813 l 2.911,1.604 C 0.186,-2.255 0.55,-0.999 0,0"
         inkscape:connector-curvature="0"
         style="fill:#a93a58" />
      <path
         transform="translate(206.3299,169.1927)"
         id="path25"
         d="m 0,0 c -0.999,-0.55 -1.363,-1.806 -0.813,-2.805 0.551,-0.999 1.807,-1.363 2.806,-0.813 0.999,0.55 1.362,1.806 0.812,2.805 C 2.255,0.186 0.999,0.55 0,0"
         inkscape:connector-curvature="0"
         style="fill:#a93a58" />
      <path
         transform="translate(236.1735,157.3641)"
         id="path27"
         d="m 0,0 c -0.999,-0.55 -1.363,-1.806 -0.813,-2.805 0.551,-0.999 1.807,-1.363 2.806,-0.813 0.999,0.55 1.363,1.806 0.812,2.805 C 2.255,0.186 0.999,0.55 0,0"
         inkscape:connector-curvature="0"
         style="fill:#a93a58" />
      <path
         transform="translate(199.1898,212.0545)"
         id="path29"
         d="m 0,0 -2.912,-1.604 c -0.999,-0.55 -1.363,-1.806 -0.812,-2.805 0.55,-0.999 1.806,-1.363 2.805,-0.813 l 2.911,1.604 c 1,0.55 1.363,1.806 0.813,2.805 C 2.255,0.186 0.999,0.55 0,0"
         inkscape:connector-curvature="0"
         style="fill:#a93a58" />
      <path
         d="m 143.6149,108.9987 c -1.105,-0.608 -1.507,-1.997 -0.899,-3.102 0.609,-1.105 1.998,-1.507 3.103,-0.899 1.104,0.609 1.507,1.998 0.898,3.102 -0.608,1.105 -1.997,1.508 -3.102,0.899"
         id="path31"
         inkscape:connector-curvature="0"
         style="fill:#fcc864" />
      <path
         d="m 112.7462,165.0441 c 1.105,0.608 1.507,1.997 0.899,3.102 -0.609,1.105 -1.998,1.507 -3.103,0.899 -1.104,-0.609 -1.507,-1.998 -0.898,-3.102 0.608,-1.105 1.997,-1.508 3.102,-0.899"
         id="path33"
         inkscape:connector-curvature="0"
         style="fill:#fcc864" />
      <path
         d="m 261.316,182.2931 c -6.026,10.94 -17.753,14.486 -28.869,8.363 l -10.499,-5.783 20.506,-37.232 10.499,5.783 c 11.117,6.123 14.486,17.753 8.46,28.693 z"
         id="path43"
         inkscape:connector-curvature="0"
         style="fill:#fcc864" />
      <path
         d="m 211.8557,94.4104 c -1.105,-0.609 -2.494,-0.206 -3.102,0.899 -0.609,1.105 -0.206,2.493 0.898,3.102 1.105,0.608 2.494,0.206 3.103,-0.899 0.608,-1.105 0.206,-2.493 -0.899,-3.102 m -6.002,-3.305 0.001,-0.001 -3.48,-1.917 -10e-4,0.001 c -1.105,-0.608 -2.494,-0.206 -3.102,0.899 -0.609,1.105 -0.206,2.494 0.899,3.102 l 3.48,1.917 c 1.105,0.609 2.494,0.206 3.102,-0.899 0.609,-1.104 0.206,-2.493 -0.899,-3.102 m -47.435,99.094 v -0.001 l -3.48,-1.917 -0.001,0.001 c -1.104,-0.608 -2.493,-0.206 -3.102,0.899 -0.608,1.105 -0.206,2.494 0.899,3.102 l 3.48,1.917 c 1.105,0.608 2.494,0.206 3.102,-0.899 0.609,-1.105 0.206,-2.493 -0.898,-3.102 m -4.793,-23.51 c -1.105,-0.608 -2.494,-0.206 -3.102,0.899 -0.609,1.104 -0.207,2.493 0.898,3.102 1.105,0.608 2.494,0.206 3.102,-0.899 0.609,-1.105 0.207,-2.494 -0.898,-3.102 m 73.823,-72.976 -59.099,107.301 41.75,22.996 c 33.057,18.208 69.406,8.988 86.43,-21.919 l 0.17,-0.309 c 8.141,-14.781 9.97,-31.43 5.15,-46.881 -4.91,-15.736 -16.505,-29.299 -32.65,-38.192 z m 80.378,113.557 c -20.015,36.339 -65.599,49.657 -102.01,29.897 -0.036,-0.018 -0.073,-0.033 -0.109,-0.053 l -0.312,-0.172 -0.001,-0.001 h -0.001 l -98.102,-54.033 c -1.121,-0.617 -1.537,-2.014 -0.928,-3.12 0.609,-1.105 2.012,-1.5 3.133,-0.883 l 32.05,17.653 c 1.122,0.617 2.525,0.222 3.133,-0.883 0.609,-1.106 0.194,-2.503 -0.928,-3.12 l -26.998,-14.871 c -1.122,-0.617 -1.537,-2.014 -0.929,-3.12 0.609,-1.105 2.012,-1.5 3.134,-0.883 l 15.587,8.585 c 1.121,0.618 2.524,0.223 3.133,-0.883 0.609,-1.105 0.193,-2.502 -0.928,-3.12 l -2.626,-1.446 c -1.121,-0.618 -1.537,-2.014 -0.928,-3.12 0.609,-1.105 2.012,-1.501 3.133,-0.883 l 11.47,6.317 c 1.121,0.617 2.523,0.221 3.132,-0.883 0.608,-1.106 0.193,-2.503 -0.929,-3.12 l -27.69,-15.252 c -1.122,-0.618 -1.537,-2.015 -0.928,-3.12 0.608,-1.105 2.011,-1.501 3.133,-0.883 l 16.434,9.051 c -0.091,-0.049 -0.175,-0.106 -0.257,-0.166 1.067,0.419 2.296,0.005 2.856,-1.011 0.559,-1.016 0.252,-2.276 -0.672,-2.953 0.094,0.036 0.187,0.077 0.278,0.127 l -6.901,-3.8 c -1.121,-0.618 -1.537,-2.015 -0.928,-3.12 0.609,-1.106 2.012,-1.501 3.133,-0.883 l 16.6,9.143 c 1.122,0.617 2.525,0.222 3.134,-0.883 0.608,-1.105 0.193,-2.501 -0.927,-3.12 l -19.555,-10.77 c -1.122,-0.618 -1.537,-2.015 -0.928,-3.12 0.608,-1.106 2.011,-1.501 3.133,-0.883 l 15.242,8.395 c 1.122,0.618 2.525,0.222 3.133,-0.883 0.609,-1.105 0.194,-2.502 -0.928,-3.12 l -30.322,-16.701 c -1.121,-0.618 -1.537,-2.014 -0.928,-3.12 0.609,-1.105 2.012,-1.501 3.133,-0.883 l 16.398,9.032 c 1.122,0.617 2.524,0.222 3.133,-0.883 0.609,-1.106 0.193,-2.503 -0.928,-3.12 l -7.928,-4.367 c -1.121,-0.618 -1.537,-2.014 -0.928,-3.12 0.609,-1.105 2.012,-1.501 3.133,-0.883 l 13.811,7.607 c 1.122,0.617 2.524,0.222 3.133,-0.883 0.609,-1.106 0.194,-2.503 -0.928,-3.12 l -17.539,-9.661 c -1.122,-0.618 -1.538,-2.015 -0.929,-3.12 0.609,-1.105 2.012,-1.501 3.133,-0.883 l 25.896,14.263 c 1.121,0.617 2.524,0.222 3.133,-0.883 0.609,-1.106 0.193,-2.503 -0.928,-3.12 l -20.669,-11.385 c -1.122,-0.617 -1.538,-2.014 -0.929,-3.12 0.609,-1.105 2.012,-1.5 3.133,-0.883 l 26.222,14.442 c 1.121,0.618 2.524,0.223 3.133,-0.883 0.609,-1.105 0.193,-2.502 -0.928,-3.12 l -10.436,-5.747 c -1.122,-0.618 -1.537,-2.015 -0.928,-3.121 0.608,-1.105 2.011,-1.5 3.133,-0.883 l 5.619,3.095 c 1.121,0.618 2.524,0.222 3.133,-0.883 0.609,-1.105 0.193,-2.502 -0.928,-3.12 l -22.131,-12.189 c -1.122,-0.618 -1.538,-2.015 -0.929,-3.12 0.609,-1.106 2.012,-1.501 3.133,-0.884 l 16.298,8.977 c 1.121,0.617 2.523,0.221 3.132,-0.884 0.609,-1.105 0.193,-2.502 -0.929,-3.12 l -20.164,-11.106 c -1.121,-0.618 -1.537,-2.015 -0.928,-3.12 0.609,-1.106 2.011,-1.501 3.133,-0.883 l 27.408,15.095 c 1.122,0.618 2.524,0.223 3.133,-0.883 0.609,-1.105 0.193,-2.502 -0.928,-3.12 l -26.102,-14.376 c -1.122,-0.618 -1.537,-2.015 -0.929,-3.12 0.609,-1.106 2.012,-1.501 3.134,-0.883 l 20.667,11.383 c 1.121,0.617 2.524,0.222 3.133,-0.884 0.608,-1.105 0.193,-2.502 -0.929,-3.12 l -8.097,-4.46 c -1.122,-0.617 -1.538,-2.014 -0.929,-3.12 0.609,-1.105 2.012,-1.501 3.133,-0.883 l 33.753,18.59 c 1.121,0.618 2.524,0.222 3.133,-0.883 0.608,-1.105 0.193,-2.502 -0.929,-3.12 l -40.341,-22.219 c -1.121,-0.618 -1.537,-2.015 -0.928,-3.12 0.609,-1.106 2.012,-1.501 3.133,-0.883 l 27.01,14.876 c 1.122,0.618 2.525,0.223 3.133,-0.883 0.609,-1.105 0.194,-2.502 -0.928,-3.12 l -8.759,-4.824 c -1.122,-0.618 -1.537,-2.015 -0.928,-3.12 0.608,-1.106 2.011,-1.501 3.133,-0.883 l 70.411,38.781 c 0.181,0.1 0.342,0.222 0.485,0.358 1.007,0.498 2.009,1.016 3.003,1.563 36.48,20.093 49.764,65.953 29.672,102.433"
         id="path45"
         inkscape:connector-curvature="0"
         style="fill:#fcc864" />
    </g>
    <path
       id="path8600"
       d="m 115.83821,251.85514 2.50473,-7.1276 -42.761355,-15.0163 -2.50473,7.12761 c -2.7646,7.87375 1.37698,16.49739 9.25072,19.26199 l 14.254674,5.00292 c 7.867171,2.76016 16.487641,-1.38041 19.255511,-9.24737 z m 25.39672,-95.15164 c 0.69114,-1.96842 2.84541,-3.00303 4.81385,-2.31188 1.97498,0.68814 3.00964,2.84224 2.31189,4.81384 l -27.51467,78.39673 -7.13248,-2.50645 z M 105.603,144.18727 c 0.69115,-1.96844 2.84541,-3.00304 4.81384,-2.3119 1.96844,0.69115 3.00305,2.84542 2.3119,4.81386 l -27.518321,78.39808 -7.125744,-2.50196 z m -13.273521,83.39684 27.525001,-78.39292 c 1.37586,-3.93365 5.69399,-5.99951 9.62771,-4.62379 3.93687,1.38229 6.01948,5.68439 4.62004,9.63761 l -27.51485,78.38819 z m 56.201841,-80.3254 c -2.41126,-0.84664 -4.85599,-0.63821 -7.12416,0.0911 -0.22571,-0.74257 -0.46118,-1.48859 -0.80289,-2.20009 -1.7467,-3.63702 -4.81096,-6.37108 -8.61975,-7.70859 -3.8157,-1.33393 -7.90659,-1.11232 -11.54364,0.63441 -0.66489,0.31932 -1.26188,0.72882 -1.86234,1.13161 -1.35613,-2.05718 -3.29746,-3.62857 -5.65958,-4.45794 -0.22645,-0.0795 -0.45816,-0.0337 -0.69137,-0.0935 l 29.26667,-24.28385 7.62644,37.15993 c -0.2033,-0.082 -0.38278,-0.20053 -0.58938,-0.27308 z"
       inkscape:connector-curvature="0"
       style="fill:#ffd54a;fill-opacity:1;stroke:#7e0000;stroke-width:3.5250001;stroke-miterlimit:4;stroke-dasharray:none;stroke-opacity:1" />
  </g>
</svg>
